<?xml version="1.0" encoding="UTF-8"?><svg id="Layer_1" xmlns="http://www.w3.org/2000/svg" width="753.2824137658665" height="184.03820805207943" viewBox="55.3587931170639 339.9808959739603 753.2824137658665 184.03820805207943"><rect x="55.3587931170639" y="339.9808959739603" width="753.2824137658665" height="184.03820805207943" fill="#fff" stroke-width="0"/><path d="m147.051171800439988,376.599553624325381c1.598358327570168,0,3.19671665514943.370148446912026,4.662867363309488,1.110390528289827l50.410704991460079,25.452762173234987-50.410704991460079,25.452762173242263c-1.466150708160058.74024208137962-3.06450903573932,1.11039052828346-4.662867363309488,1.11039052828346-1.598358327579263,0-3.196716655160344-.370148446903841-4.662867363320402-1.11039052828346l-50.410814616348944-25.452762173242263,50.410814616348944-25.452762173234987c1.466150708160058-.740242081377801,3.064509035741139-1.110390528289827,4.662867363320402-1.110390528289827m0-6.618657650365094c-2.642919108389833,0-5.286879653240248.629630565628759-7.646062135620014,1.82081463911527l-50.410759803899055,25.452707360790555-.000011701751646.000005908289495c-4.84739340285887,2.447480976675251-4.847393376088803,9.369083857186524,0,11.816564887389177l.000011701751646.000005908289495,50.410814616348944,25.452762173242263c2.359237294820559,1.191129261042079,5.003170433450578,1.820759826670837,7.646007323170124,1.820759826670837,2.642836889710452,0,5.28677002834047-.629630565628759,7.645979916940632-1.820759826670837l50.410732397678657-25.452762173242263.000017269099772-.000008719299331c4.847385962031694-2.447483009929783,4.847385962031694-9.369076255439722,0-11.81655926536132l-.000017269099772-.000008719307516-50.410704991460079-25.452762173234987c-2.359100263698565-1.191129261042079-5.003088214780291-1.820759826670837-7.646007323159211-1.820759826670837h0Z" fill="#1474f0" stroke-width="0"/><path d="m205.1078567088407,426.790104426971084l-11.569920697591442-5.841691230256401-7.342565622868278,3.70718496347672,15.929373766828576,8.042849431215473-50.410677585239682,25.452707360789645c-1.466123301928747.740296893824052-3.064563848180114,1.11039052828346-4.662894769529885,1.11039052828346-1.598330921360684,0-3.196661842710455-.370093634459408-4.662894769540799-1.11039052828346l-50.410787210128547-25.452707360789645,15.929593016619037-8.042959056106156-7.342565622879192-3.707184963475811-11.57013994737099,5.841800855146175c-4.847393462308901,2.447485332660108-4.847393462308901,9.369091371314425,0,11.816576703968167l50.410787210130366,25.452816985685786c2.359237294820559,1.191074448597647,5.003170433450578,1.820759826670837,7.646007323170124,1.820759826670837,2.642836889710452,0,5.28677002834047-.629685378073191,7.646007323159211-1.820759826670837l50.410677585241501-25.452816985685786c4.847393462308901-2.447485332653741,4.847393462308901-9.369091371308059,0-11.816576703968167Z" fill="#021c3f" stroke-width="0"/><path d="m205.1078567088407,454.928950509713104l-10.186673813801463-5.143380669971521-7.342565622868278,3.707294588371951,14.546126883038596,7.344429246028085-50.410677585239682,25.45270736079874c-1.466123301928747.740296893824052-3.064563848180114,1.110500153172325-4.662894769529885,1.110500153172325-1.598330921360684,0-3.196661842710455-.370203259348273-4.662894769540799-1.110500153172325l-50.410787210128547-25.45270736079874,14.546455757719741-7.344648495814909-7.342565622881011-3.707184963475811-10.187002688469875,5.143490294862204c-4.847393462308901,2.447485332661017-4.847393462308901,9.36909137130715,0,11.816576703968167l50.410787210130366,25.452816985687605c2.359127669929876,1.191184073486511,5.003170433450578,1.820759826670837,7.646007323170124,1.820759826670837,2.642946514601135,0,5.286879653229335-.629575753184326,7.646116948058989-1.820869451561521l50.410567960341723-25.452707360796921c4.847393462308901-2.447485332661017,4.847393462308901-9.36909137130715,0-11.816576703968167Z" fill="#31bbf5" stroke-width="0"/><path d="m288.182222507930419,460.828125c-5.9814453125,0-11.3349609375-1.41796875-16.060546875-4.25390625-4.7265625-2.8349609375-8.4453125-6.91015625-11.1572265625-12.2255859375-2.7119140625-5.314453125-4.0673828125-11.65966796875-4.0673828125-19.03564453125,0-7.40673828125,1.35546875-13.76708984375,4.0673828125-19.08251953125,2.7119140625-5.31494140625,6.4306640625-9.3974609375,11.1572265625-12.2490234375,4.7255859375-2.85107421875,10.0791015625-4.27685546875,16.060546875-4.27685546875,5.98046875,0,11.3193359375,1.42578125,16.0146484375,4.27685546875,4.6943359375,2.8515625,8.3974609375,6.93408203125,11.109375,12.2490234375,2.7119140625,5.3154296875,4.068359375,11.67578125,4.068359375,19.08251953125,0,7.3759765625-1.3564453125,13.72119140625-4.068359375,19.03564453125-2.7119140625,5.3154296875-6.4150390625,9.390625-11.109375,12.2255859375-4.6953125,2.8359375-10.0341796875,4.25390625-16.0146484375,4.25390625Zm0-9.6689453125c3.935546875,0,7.4609375-.9833984375,10.5751953125-2.9521484375,3.115234375-1.9677734375,5.578125-4.880859375,7.3916015625-8.7392578125,1.8125-3.8583984375,2.7197265625-8.57666015625,2.7197265625-14.15478515625,0-5.64013671875-.9072265625-10.3896484375-2.7197265625-14.248046875-1.8134765625-3.8583984375-4.2763671875-6.77099609375-7.3916015625-8.7392578125-3.1142578125-1.9677734375-6.6396484375-2.9521484375-10.5751953125-2.9521484375-3.9677734375,0-7.515625.9921875-10.6455078125,2.97509765625-3.130859375,1.98388671875-5.6015625,4.904296875-7.4140625,8.7626953125-1.8134765625,3.8583984375-2.7197265625,8.5927734375-2.7197265625,14.20166015625,0,5.578125.90625,10.28955078125,2.7197265625,14.13134765625,1.8125,3.84375,4.283203125,6.7568359375,7.4140625,8.7392578125,3.1298828125,1.984375,6.677734375,2.9755859375,10.6455078125,2.9755859375Z" fill="#021c3f" stroke-width="0"/><path d="m330.555269382930419,479.330078125v-71.40283203125h9.9482421875v8.46044921875h.8369140625c.619140625-1.08447265625,1.4794921875-2.33984375,2.580078125-3.765625,1.099609375-1.4248046875,2.6328125-2.6728515625,4.6015625-3.7421875,1.9677734375-1.06884765625,4.5791015625-1.603515625,7.8330078125-1.603515625,4.15234375,0,7.86328125,1.0537109375,11.1337890625,3.1611328125,3.2685546875,2.10791015625,5.8486328125,5.15966796875,7.7392578125,9.15771484375,1.890625,3.99755859375,2.8359375,8.81689453125,2.8359375,14.45654296875,0,5.5791015625-.9296875,10.375-2.7890625,14.3876953125-1.859375,4.013671875-4.423828125,7.09765625-7.693359375,9.2509765625-3.2705078125,2.154296875-7.0126953125,3.23046875-11.2265625,3.23046875-3.130859375,0-5.6943359375-.5341796875-7.693359375-1.603515625s-3.564453125-2.31640625-4.6953125-3.7421875c-1.1318359375-1.4248046875-2.0068359375-2.6962890625-2.6259765625-3.8115234375h-.55859375v27.56640625h-10.2265625Zm23.521484375-27.1015625c2.9755859375,0,5.4697265625-.8056640625,7.484375-2.41796875,2.0146484375-1.6103515625,3.525390625-3.7958984375,4.533203125-6.5537109375,1.005859375-2.7587890625,1.5107421875-5.857421875,1.5107421875-9.2978515625,0-3.40869140625-.5048828125-6.46875-1.5107421875-9.1806640625-1.0078125-2.71142578125-2.5107421875-4.85791015625-4.509765625-6.4384765625s-4.501953125-2.37060546875-7.5078125-2.37060546875c-2.9130859375,0-5.376953125.75146484375-7.390625,2.25439453125-2.0146484375,1.50341796875-3.533203125,3.595703125-4.5556640625,6.27587890625-1.0224609375,2.6806640625-1.5341796875,5.833984375-1.5341796875,9.45947265625,0,3.595703125.5185546875,6.763671875,1.5576171875,9.5068359375,1.0380859375,2.7421875,2.5634765625,4.888671875,4.578125,6.4384765625s4.462890625,2.32421875,7.3447265625,2.32421875Z" fill="#021c3f" stroke-width="0"/><path d="m410.860933445430419,460.9677734375c-5.11328125,0-9.529296875-1.099609375-13.248046875-3.30078125-3.7197265625-2.2001953125-6.578125-5.298828125-8.5771484375-9.296875s-2.998046875-8.693359375-2.998046875-14.0859375c0-5.32958984375.9833984375-10.0244140625,2.951171875-14.0849609375,1.9677734375-4.0595703125,4.7490234375-7.228515625,8.3447265625-9.50634765625,3.5947265625-2.27783203125,7.8095703125-3.41650390625,12.64453125-3.41650390625,2.974609375,0,5.8408203125.48779296875,8.599609375,1.46435546875,2.7578125.97607421875,5.2373046875,2.5029296875,7.4375,4.57861328125,2.2001953125,2.07666015625,3.943359375,4.76513671875,5.2294921875,8.0654296875s1.9296875,7.30615234375,1.9296875,12.0166015625v3.6259765625h-41.4189453125v-7.62353515625h36.166015625l-4.7880859375,2.51025390625c0-3.19189453125-.49609375-6.00439453125-1.4873046875-8.4375-.9921875-2.4326171875-2.45703125-4.33056640625-4.3935546875-5.6943359375-1.9365234375-1.36328125-4.3623046875-2.04541015625-7.2744140625-2.04541015625-2.8828125,0-5.3466796875.697265625-7.3916015625,2.091796875-2.0458984375,1.39453125-3.6025390625,3.23095703125-4.671875,5.5087890625s-1.603515625,4.7646484375-1.603515625,7.4609375v5.20654296875c0,3.5634765625.611328125,6.5771484375,1.8359375,9.041015625,1.2236328125,2.4638671875,2.935546875,4.3232421875,5.13671875,5.578125,2.2001953125,1.255859375,4.7568359375,1.8828125,7.669921875,1.8828125,1.921875,0,3.65625-.2705078125,5.20703125-.8134765625,1.548828125-.5419921875,2.888671875-1.36328125,4.0205078125-2.4638671875,1.130859375-1.099609375,1.9912109375-2.455078125,2.580078125-4.0673828125l9.623046875,2.2783203125c-.8369140625,2.6650390625-2.2392578125,5.0205078125-4.20703125,7.0654296875-1.96875,2.0458984375-4.416015625,3.6337890625-7.3447265625,4.7646484375s-6.2529296875,1.697265625-9.9716796875,1.697265625Z" fill="#021c3f" stroke-width="0"/><path d="m453.650972507930419,429.12451171875v30.77392578125h-10.2265625v-51.97119140625h9.76171875l.09375,12.73681640625h-1.0693359375c1.517578125-4.6484375,3.71875-8.0419921875,6.6005859375-10.18017578125,2.8828125-2.138671875,6.369140625-3.20751953125,10.4599609375-3.20751953125,3.5322265625,0,6.6162109375.74365234375,9.25,2.2314453125,2.6337890625,1.4873046875,4.6953125,3.68017578125,6.1826171875,6.57763671875,1.48828125,2.89794921875,2.2314453125,6.50048828125,2.2314453125,10.80810546875v33.0048828125h-10.2265625v-31.75c0-3.74951171875-.9765625-6.677734375-2.9287109375-8.78564453125-1.9521484375-2.107421875-4.6337890625-3.1611328125-8.0419921875-3.1611328125-2.2939453125,0-4.3544921875.50390625-6.1826171875,1.5107421875-1.8291015625,1.00732421875-3.2705078125,2.4716796875-4.3232421875,4.39306640625-1.0537109375,1.921875-1.5810546875,4.26123046875-1.5810546875,7.01904296875Z" fill="#021c3f" stroke-width="0"/><path d="m500.533785007930419,459.8984375v-69.26416015625h12.2265625l26.078125,41.23291015625c.8671875,1.3642578125,1.84375,2.9912109375,2.9287109375,4.880859375,1.083984375,1.890625,2.2314453125,4.021484375,3.439453125,6.392578125,1.208984375,2.3701171875,2.4013671875,4.9501953125,3.580078125,7.7392578125h-1.3017578125c-.279296875-2.6337890625-.48828125-5.2451171875-.6279296875-7.8330078125-.138671875-2.5869140625-.240234375-5.01171875-.3017578125-7.2744140625-.0625-2.2626953125-.0927734375-4.16796875-.0927734375-5.71826171875v-39.419921875h10.73828125v69.26416015625h-12.2724609375l-23.3828125-36.86328125c-1.2392578125-2.01416015625-2.4560546875-4.04443359375-3.6484375-6.08984375-1.1943359375-2.04541015625-2.5107421875-4.408203125-3.9521484375-7.0888671875-1.4404296875-2.68017578125-3.2001953125-5.9423828125-5.275390625-9.78564453125h1.6728515625c.1552734375,3.40966796875.3095703125,6.59375.46484375,9.55322265625s.271484375,5.578125.3486328125,7.85595703125.1162109375,4.0986328125.1162109375,5.4619140625v36.95654296875h-10.73828125Z" fill="#021c3f" stroke-width="0"/><path d="m585.348238132930419,461.060546875c-3.28515625,0-6.259765625-.6123046875-8.9248046875-1.8359375-2.666015625-1.2236328125-4.7734375-3.013671875-6.322265625-5.369140625-1.5498046875-2.35546875-2.32421875-5.2373046875-2.32421875-8.646484375,0-2.9443359375.5654296875-5.361328125,1.6962890625-7.251953125,1.130859375-1.8896484375,2.6650390625-3.3935546875,4.6025390625-4.509765625,1.9365234375-1.115234375,4.0908203125-1.95166015625,6.4619140625-2.509765625,2.3701171875-.5576171875,4.779296875-.97607421875,7.228515625-1.2548828125,3.0673828125-.3720703125,5.5615234375-.67431640625,7.484375-.90673828125,1.9208984375-.232421875,3.3388671875-.61962890625,4.2529296875-1.162109375.9140625-.54150390625,1.37109375-1.41748046875,1.37109375-2.62646484375v-.27880859375c0-1.9521484375-.37109375-3.5947265625-1.115234375-4.92724609375s-1.8525390625-2.36279296875-3.32421875-3.091796875c-1.4716796875-.7275390625-3.30859375-1.09228515625-5.5078125-1.09228515625-2.2626953125,0-4.20703125.3486328125-5.833984375,1.0458984375s-2.9453125,1.5888671875-3.9521484375,2.6728515625c-1.0068359375,1.08544921875-1.7587890625,2.21630859375-2.25390625,3.3935546875l-9.623046875-2.51025390625c1.177734375-3.0986328125,2.8662109375-5.59326171875,5.0673828125-7.48388671875,2.2001953125-1.89013671875,4.7255859375-3.26953125,7.5771484375-4.13720703125,2.8505859375-.86767578125,5.794921875-1.3017578125,8.83203125-1.3017578125,2.107421875,0,4.3388671875.24853515625,6.6943359375.74365234375,2.3544921875.49609375,4.5703125,1.39453125,6.6474609375,2.6962890625,2.076171875,1.3017578125,3.765625,3.13037109375,5.06640625,5.4853515625,1.3017578125,2.35546875,1.953125,5.42333984375,1.953125,9.2041015625v34.49267578125h-9.9013671875v-7.1123046875h-.51171875c-.681640625,1.3330078125-1.689453125,2.634765625-3.021484375,3.904296875-1.3330078125,1.271484375-3.0146484375,2.3173828125-5.0439453125,3.138671875-2.0302734375.8203125-4.455078125,1.2314453125-7.275390625,1.2314453125Zm2.2783203125-8.2275390625c2.7890625,0,5.1748046875-.5419921875,7.1591796875-1.6279296875,1.982421875-1.083984375,3.5009765625-2.525390625,4.5546875-4.322265625,1.0537109375-1.7978515625,1.5810546875-3.703125,1.5810546875-5.7177734375v-6.6484375c-.3720703125.3720703125-1.0771484375.7060546875-2.115234375,1-1.0390625.294921875-2.2236328125.5576171875-3.5556640625.7900390625-1.3330078125.232421875-2.6201171875.4267578125-3.8583984375.5810546875-1.240234375.1552734375-2.2626953125.279296875-3.068359375.3720703125-1.921875.248046875-3.6806640625.6669921875-5.2763671875,1.2548828125-1.5966796875.5888671875-2.8671875,1.42578125-3.8115234375,2.5107421875-.9462890625,1.0849609375-1.41796875,2.5263671875-1.41796875,4.3232421875,0,1.642578125.42578125,3.021484375,1.2783203125,4.13671875.8515625,1.1162109375,2.005859375,1.9521484375,3.462890625,2.5107421875,1.45703125.5576171875,3.1455078125.8369140625,5.0673828125.8369140625Z" fill="#021c3f" stroke-width="0"/><path d="m637.391206882930419,459.8984375l-19.6171875-51.97119140625h11.0634765625l10.2734375,29.51806640625c1.146484375,3.2548828125,2.1220703125,6.5166015625,2.9287109375,9.7861328125.8056640625,3.26953125,1.6572265625,6.515625,2.556640625,9.73828125h-3.068359375c.8671875-3.22265625,1.7041015625-6.46875,2.5107421875-9.73828125.8046875-3.26953125,1.765625-6.53125,2.8818359375-9.7861328125l10.2734375-29.51806640625h10.970703125l-19.6171875,51.97119140625h-11.15625Z" fill="#021c3f" stroke-width="0"/><path d="m696.197847507930419,459.8984375l24.6376953125-69.26416015625h13.015625l25.1025390625,69.26416015625h-11.482421875l-13.48046875-38.537109375c-1.0537109375-3.12939453125-2.2080078125-6.8173828125-3.462890625-11.0634765625-1.255859375-4.24560546875-2.705078125-9.34375-4.3466796875-15.2939453125h2.1376953125c-1.580078125,6.0126953125-2.998046875,11.16455078125-4.2529296875,15.45654296875-1.2548828125,4.29296875-2.36328125,7.92578125-3.32421875,10.90087890625l-13.0625,38.537109375h-11.4814453125Zm13.3408203125-18.2685546875v-8.8330078125h36.02734375v8.8330078125h-36.02734375Z" fill="#021c3f" stroke-width="0"/><path d="m778.641206882930419,390.63427734375v69.26416015625h-10.5986328125v-69.26416015625h10.5986328125Z" fill="#021c3f" stroke-width="0"/></svg>