<?xml version="1.0" encoding="UTF-8"?><svg id="Layer_1" xmlns="http://www.w3.org/2000/svg" width="660.0000000000207" height="663.4959763211316" viewBox="101.99999999997907 100.2520118394342 660.0000000000207 663.4959763211316"><rect x="101.99999999997907" y="100.2520118394342" width="660.0000000000207" height="663.4959763211316" fill="#fff" stroke-width="0"/><path d="m432.000222126740482,207.497003107559976c6.477136162689931,0,12.954272325388956,1.4999777269486,18.8956545598503,4.499711060644586l204.282728505449995,103.143959316403198-204.282728505449995,103.143959316403198c-5.941382234461344,2.999733333695985-12.418518397160369,4.499711060643676-18.8956545598503,4.499711060643676-6.477136162700845,0-12.95427232539987-1.499977726947691-18.8956545598503-4.499711060643676l-204.283172745859702-103.143959316403198,204.283172745859702-103.143959316403198c5.94138223445043-2.999733333695985,12.418518397149455-4.499711060644586,18.8956545598503-4.499711060644586m0-26.821236562534068c-10.710080860240851,0-21.42438200432116,2.551494765210009-30.98465763671993,7.378611004221966l-204.28295062565121,103.143737196201073-.000047419778639.000023942559892c-19.643421980370476,9.91809362645472-19.643421871920509,37.966975749829544,0,47.885069593197841l.000047419778639.000023942558983,204.283172745861521,103.143959316403198c9.560497752598167,4.826894118810742,20.274687836579687,7.378388884020751,30.98443551650962,7.378388884020751s21.42393776390054-2.551494765210009,30.984324456409013-7.378388884020751l204.282839565550603-103.143959316403198.000069980740591-.000035333828237c19.643391827408777-9.918101865926474,19.643391827408777-37.966944944732859,0-47.885046810659333l-.000069980740591-.000035333829146-204.282728505449995-103.143959316404107c-9.559942452100586-4.826894118808923-20.274354656279684-7.378388884018932-30.98443551650962-7.378388884018932h0Z" fill="#1474f0" stroke-width="0"/><path d="m667.26727508859949,410.887585819988089l-46.88557656742887-23.672682693217212-29.754778075901413,15.022877770539708,64.551684746771571,32.592585782038441-204.282617445351207,103.143737196201982c-5.941271174358917,2.999955453897201-12.418740517359765,4.499711060643676-18.895765619949088,4.499711060643676-6.477025102600237,0-12.954050205191379-1.499755606746476-18.895765619950907-4.499711060643676l-204.283061685759094-103.143737196201982,64.552573227580069-32.59303002244269-29.754778075910508-15.022877770539708-46.886465048230093,23.673126933621461c-19.643422221299261,9.918111278500874-19.643422221299261,37.967006199816751,0,47.885117478317625l204.283061685760913,103.144181436606232c9.560497752598167,4.826671998607708,20.274687836579687,7.378388884018932,30.98443551650962,7.378388884018932s21.42393776390054-2.551716885411224,30.98443551650962-7.378388884018932l204.282617445349388-103.144181436606232c19.64342222130108-9.918111278500874,19.64342222130108-37.967006199816751,0-47.885117478317625Z" fill="#021c3f" stroke-width="0"/><path d="m667.26727508859949,524.916545656031303l-41.280151139129885-20.842871314374861-29.754778075910508,15.023322010945776,58.94625931848168,29.762330162790022-204.282617445351207,103.143737196201982c-5.941271174358917,2.999955453897201-12.418740517359765,4.500155301047926-18.895765619949088,4.500155301047926-6.477025102600237,0-12.954050205191379-1.500199847150725-18.895765619950907-4.500155301047926l-204.283061685759094-103.143737196201982,58.947592039688971-29.763218643600339-29.754778075908689-15.022877770539708-41.281483860340813,20.84331555477911c-19.643422221299261,9.918111278500874-19.643422221299261,37.967006199816751,0,47.885117478317625l204.283061685760913,103.144181436606232c9.56005351218846,4.827116239011957,20.274687836579687,7.378388884018932,30.98443551650962,7.378388884018932,10.710191920328725,0,21.424382004310246-2.551272645006975,30.984879756910232-7.378833124423181l204.282173204948776-103.143737196201982c19.64342222130108-9.918111278500874,19.64342222130108-37.967006199816751,0-47.885117478317625Z" fill="#31bbf5" stroke-width="0"/></svg>